<?xml version="1.0" standalone="no"?>
<!DOCTYPE svg PUBLIC "-//W3C//DTD SVG 20010904//EN"
 "http://www.w3.org/TR/2001/REC-SVG-20010904/DTD/svg10.dtd">
<svg version="1.0" xmlns="http://www.w3.org/2000/svg"
 width="512.000000pt" height="512.000000pt" viewBox="0 0 512.000000 512.000000"
 preserveAspectRatio="xMidYMid meet">

<g transform="translate(0.000000,512.000000) scale(0.100000,-0.100000)"
fill="#000000" stroke="none">
<path d="M3075 4623 c-576 -16 -1282 -84 -1505 -144 -213 -58 -336 -176 -387
-372 -19 -76 -13 -178 17 -286 11 -40 19 -75 18 -76 -2 -2 -46 -17 -98 -35
-129 -44 -422 -174 -474 -210 -69 -47 -142 -134 -166 -198 -31 -82 -25 -223
15 -342 47 -140 580 -1192 859 -1695 140 -253 274 -496 298 -540 91 -169 200
-244 337 -232 75 7 390 83 621 151 193 56 1350 442 1363 455 5 5 4 31 -4 65
-9 44 -10 67 0 109 16 73 75 169 141 231 53 48 61 52 150 70 147 29 140 24
134 98 -7 74 5 108 65 188 47 63 101 108 160 134 25 12 41 26 41 37 0 9 -48
140 -106 291 -154 398 -863 2165 -891 2221 -40 79 -67 87 -303 85 -107 -1
-235 -3 -285 -5z m479 -67 c18 -7 42 -27 54 -43 11 -16 230 -553 485 -1194
499 -1251 502 -1258 496 -1263 -2 -1 -125 -15 -274 -30 -566 -56 -901 -97
-1348 -161 -254 -37 -333 -53 -421 -84 -31 -11 -58 -16 -60 -12 -3 4 -34 90
-70 192 -93 265 -271 735 -446 1179 -241 610 -347 882 -420 1073 l-68 178 26
11 c94 36 201 55 492 88 258 28 497 47 760 60 485 23 748 25 794 6z m-2094
-278 c17 -46 81 -211 142 -368 66 -169 106 -286 100 -288 -32 -10 -132 -85
-169 -124 l-41 -45 -51 151 c-84 251 -112 388 -114 562 l-2 106 48 44 c27 24
50 44 52 44 2 0 18 -37 35 -82z m-146 -786 c37 -103 116 -308 173 -457 58
-148 212 -547 343 -887 131 -339 248 -635 260 -658 12 -24 42 -65 67 -91 60
-65 125 -89 237 -89 95 0 504 54 1026 135 195 30 359 55 365 54 21 -1 -53 -24
-871 -270 -668 -200 -838 -248 -845 -238 -5 8 -179 325 -386 704 -434 795
-618 1129 -818 1480 -78 138 -147 260 -153 272 -11 20 -7 24 76 63 168 81 395
168 437 169 17 1 31 -28 89 -187z m508 -132 c43 -107 78 -199 77 -205 0 -5
-27 -23 -60 -39 -76 -35 -158 -116 -194 -190 -15 -31 -29 -55 -31 -53 -2 2
-33 82 -69 178 -73 192 -76 219 -34 306 40 83 177 209 218 201 8 -2 47 -85 93
-198z m-1010 -215 c85 -148 170 -300 190 -336 l37 -66 -54 -53 c-62 -61 -99
-125 -130 -223 -12 -38 -25 -66 -27 -61 -55 93 -217 405 -243 468 -66 159 -82
300 -48 406 18 55 99 158 114 143 4 -4 77 -129 161 -278z m1223 -335 c134
-345 246 -646 331 -887 l66 -188 -24 -15 c-30 -19 -102 -90 -116 -115 -11 -19
-16 -16 -72 43 -85 89 -142 213 -309 677 -77 215 -156 432 -175 484 l-35 95
20 32 c29 47 94 103 152 130 28 13 52 22 53 21 1 -1 50 -126 109 -277z m-906
-227 c30 -54 70 -127 89 -162 l35 -64 -53 -46 c-84 -72 -137 -165 -165 -286
-6 -28 -13 -19 -82 120 l-75 149 16 85 c10 47 31 114 47 149 29 60 104 152
125 152 5 0 34 -44 63 -97z m530 -971 l362 -662 -54 -53 c-74 -72 -108 -133
-114 -206 -3 -33 -1 -73 5 -90 16 -45 -1 -39 -62 22 -38 38 -86 113 -183 282
-156 276 -284 509 -428 784 l-107 205 6 64 c9 85 37 164 83 231 44 64 113 119
124 99 3 -7 169 -311 368 -676z m2810 352 c-33 -32 -131 -48 -609 -99 -516
-55 -844 -93 -1087 -125 -122 -17 -228 -30 -235 -29 -39 3 224 66 387 93 129
21 949 119 1420 169 72 8 134 15 140 16 5 0 -2 -11 -16 -25z m-76 -94 c-9 -16
-22 -30 -28 -30 -5 0 -458 -56 -1005 -124 -547 -69 -996 -123 -998 -121 -2 2
9 17 25 33 27 30 33 31 243 61 210 30 676 85 1155 136 318 34 589 66 594 71 2
2 11 4 18 4 11 0 10 -6 -4 -30z m-49 -97 c-4 -16 -7 -29 -8 -29 -1 -1 -89 -13
-196 -28 -1066 -140 -1374 -181 -1554 -206 -249 -36 -269 -37 -262 -12 18 64
-75 47 979 179 529 66 981 121 1005 122 41 1 42 0 36 -26z m-12 -93 c3 -21 0
-31 -11 -34 -41 -13 -241 -48 -376 -66 -216 -30 -298 -42 -700 -104 -298 -45
-588 -85 -819 -110 -33 -4 -44 0 -68 24 -37 38 -37 60 1 60 16 0 92 9 168 20
76 11 428 58 783 105 665 88 1000 132 1011 134 4 1 9 -12 11 -29z m-321 -198
c-11 -16 -26 -34 -33 -39 -28 -23 -435 -143 -1093 -323 -323 -88 -632 -176
-788 -224 -26 -9 -45 -11 -42 -5 12 18 82 48 173 73 126 36 1296 389 1572 475
124 39 226 70 228 71 2 0 -6 -13 -17 -28z m-73 -119 c-17 -41 -26 -50 -51 -56
-12 -2 -368 -105 -792 -227 -423 -122 -817 -235 -875 -251 -58 -16 -144 -41
-193 -56 -48 -14 -90 -23 -93 -20 -4 4 5 21 19 40 21 28 41 38 133 66 198 61
436 129 885 251 382 105 787 221 924 265 56 18 56 18 43 -12z m-30 -115 l-3
-33 -120 -33 c-66 -19 -284 -85 -485 -147 -201 -63 -554 -171 -785 -241 -231
-69 -457 -138 -501 -152 -99 -30 -116 -26 -112 25 l3 38 320 91 c318 91 1495
430 1610 464 33 10 64 18 68 19 5 0 7 -14 5 -31z m4 -91 c4 -23 -18 -31 -646
-240 -414 -138 -718 -233 -836 -262 -102 -25 -237 -59 -301 -75 -134 -35 -146
-36 -171 -13 -23 21 -60 8 602 208 245 73 567 172 717 219 149 47 334 103 410
124 76 22 154 44 173 50 19 5 38 10 41 11 4 1 9 -9 11 -22z"/>
<path d="M3341 4060 c-19 -11 5 -23 25 -12 14 8 14 10 2 15 -8 3 -21 2 -27 -3z"/>
<path d="M3047 4044 c-79 -19 -108 -37 -47 -30 25 3 97 11 160 17 63 6 122 15
130 20 25 14 -180 8 -243 -7z"/>
<path d="M2747 3950 c-488 -44 -542 -51 -585 -72 -99 -49 -105 -132 -23 -326
27 -64 77 -187 111 -273 99 -251 142 -299 272 -299 83 0 1179 107 1228 120 76
20 117 75 106 142 -4 21 -32 100 -64 176 -32 75 -87 208 -122 296 -96 238
-152 288 -319 285 -36 -1 -308 -23 -604 -49z m710 -25 c75 -32 78 -36 227
-398 72 -176 106 -271 106 -297 0 -62 -17 -55 -41 17 -12 36 -42 112 -66 167
-25 56 -69 161 -98 234 -30 74 -66 150 -81 169 -42 55 -97 74 -213 74 -54 0
-104 -3 -112 -6 -16 -5 -477 -47 -779 -70 -107 -8 -205 -18 -218 -21 -32 -9
-19 19 16 36 28 14 1015 107 1150 109 45 1 87 -5 109 -14z m-31 -94 c48 -29
78 -76 122 -186 22 -55 59 -140 81 -188 41 -90 111 -269 111 -285 0 -6 -8 -13
-17 -17 -26 -10 -1106 -115 -1184 -115 -91 0 -122 22 -175 125 -51 97 -205
495 -211 546 -5 36 -5 36 39 47 25 7 119 17 209 23 90 6 301 23 469 38 385 36
513 38 556 12z"/>
<path d="M1835 3735 c91 -285 571 -1592 582 -1581 12 12 -309 926 -460 1313
-63 158 -144 338 -122 268z"/>
<path d="M4198 2113 c-26 -7 -22 -23 6 -23 31 0 56 10 56 21 0 9 -31 10 -62 2z"/>
<path d="M3945 2089 c-201 -19 -641 -90 -655 -106 -10 -11 156 6 497 53 191
26 352 51 358 56 11 10 -77 8 -200 -3z"/>
<path d="M965 3124 c45 -102 591 -1109 691 -1274 77 -128 124 -198 124 -186 0
21 -334 641 -654 1215 -97 173 -174 301 -182 301 -2 0 7 -25 21 -56z"/>
<path d="M1790 1620 c0 -8 9 -26 20 -40 13 -17 20 -20 20 -10 0 8 -9 26 -20
40 -13 17 -20 20 -20 10z"/>
</g>
</svg>
