<?xml version="1.0" standalone="no"?>
<!DOCTYPE svg PUBLIC "-//W3C//DTD SVG 20010904//EN"
 "http://www.w3.org/TR/2001/REC-SVG-20010904/DTD/svg10.dtd">
<svg version="1.0" xmlns="http://www.w3.org/2000/svg"
 width="512.000000pt" height="512.000000pt" viewBox="0 0 512.000000 512.000000"
 preserveAspectRatio="xMidYMid meet">

<g transform="translate(0.000000,512.000000) scale(0.100000,-0.100000)"
fill="#000000" stroke="none">
<path d="M2452 5089 c-67 -5 -181 -20 -253 -33 l-131 -25 -40 27 c-60 39 -138
42 -232 8 -76 -27 -144 -33 -175 -16 -14 7 -25 2 -52 -26 l-34 -35 24 -19 c31
-23 87 -40 137 -41 37 0 38 -1 14 -11 -169 -73 -450 -227 -450 -246 0 -4 34
-28 75 -52 41 -24 75 -47 75 -50 0 -4 -213 -127 -242 -138 -4 -2 -8 35 -8 83
0 48 -4 85 -9 83 -5 -1 -54 -40 -108 -85 -546 -452 -883 -1167 -883 -1873 l0
-107 82 -11 c46 -6 83 -10 84 -9 1 1 -22 76 -51 167 -29 91 -50 166 -45 168 4
2 88 -15 185 -38 98 -22 181 -40 185 -40 3 0 -4 73 -17 162 -13 89 -22 163
-20 164 1 2 93 -41 204 -96 l202 -98 11 -42 c6 -23 9 -48 6 -55 -5 -14 -715
-665 -725 -665 -4 0 -21 24 -40 53 l-33 52 7 -48 c10 -77 61 -274 98 -382 342
-1001 1286 -1675 2343 -1675 83 0 172 3 197 6 l46 7 -34 42 c-19 23 -35 45
-35 48 0 8 207 177 218 177 5 0 47 -48 93 -106 l84 -106 38 6 c59 10 246 72
366 122 142 60 251 119 401 219 370 245 652 567 850 970 268 544 327 1148 170
1742 -47 177 -136 396 -225 554 -62 109 -168 269 -178 269 -5 0 -110 -92 -235
-205 l-226 -205 -38 37 c-21 20 -38 40 -38 45 0 4 102 100 228 214 125 113
228 209 230 213 3 10 -150 176 -231 252 -43 39 -71 59 -75 52 -4 -6 -21 -77
-37 -158 l-29 -147 -45 7 c-24 4 -50 9 -58 12 -17 6 -18 -8 31 226 l34 158
-52 38 c-449 332 -1059 503 -1634 460z m985 -314 c65 -29 132 -91 165 -152 17
-31 177 -603 447 -1594 461 -1690 444 -1617 400 -1734 -25 -68 -100 -152 -163
-183 -39 -20 -374 -113 -1886 -524 -270 -73 -339 -79 -432 -36 -74 34 -138 95
-170 160 -14 29 -214 744 -444 1588 -394 1443 -419 1540 -418 1615 0 65 5 90
27 135 33 69 102 140 165 168 39 18 2043 570 2122 585 46 9 135 -5 187 -28z
m1273 -1537 c48 -25 90 -89 90 -138 0 -46 -42 -113 -85 -137 -51 -29 -89 -29
-145 0 -48 24 -90 88 -90 137 0 48 42 112 89 137 55 29 85 29 141 1z"/>
<path d="M3502 2931 c-138 -38 -176 -59 -187 -104 -4 -16 58 -267 188 -751
204 -764 206 -768 264 -779 14 -2 93 13 177 35 128 33 155 44 179 69 16 17 27
41 27 57 0 15 -86 349 -191 742 -177 665 -192 717 -220 743 -39 36 -70 34
-237 -12z"/>
<path d="M2960 2789 c-120 -33 -150 -45 -172 -70 -16 -16 -28 -40 -28 -54 0
-25 63 -269 81 -317 14 -35 50 -58 90 -58 30 0 172 35 271 66 56 18 88 54 88
98 0 17 -18 96 -39 175 -58 216 -69 222 -291 160z"/>
<path d="M2400 2638 c-80 -22 -151 -45 -159 -51 -8 -7 -20 -27 -28 -45 -12
-30 -11 -43 17 -150 47 -178 59 -210 87 -232 35 -28 65 -25 217 15 139 38 173
55 195 100 12 24 10 39 -14 129 -58 221 -64 236 -98 256 -18 11 -41 20 -52 19
-11 0 -85 -18 -165 -41z"/>
<path d="M1840 2484 c-206 -58 -207 -59 -154 -264 45 -174 55 -197 99 -215 30
-13 43 -12 146 15 184 48 201 54 221 81 27 36 25 67 -17 227 -57 214 -67 219
-295 156z"/>
<path d="M3122 2221 c-158 -43 -183 -56 -202 -100 -11 -27 -8 -48 29 -188 36
-134 47 -162 72 -185 39 -37 62 -36 231 9 146 38 181 58 191 109 2 15 -13 94
-35 178 -42 160 -64 199 -118 210 -14 3 -89 -12 -168 -33z"/>
<path d="M2600 2080 c-58 -15 -125 -33 -149 -40 -57 -15 -91 -52 -91 -99 0
-20 18 -101 40 -181 58 -213 62 -215 300 -151 206 56 211 63 155 274 -44 167
-55 192 -95 212 -37 19 -34 19 -160 -15z"/>
<path d="M1995 1920 c-118 -33 -144 -44 -167 -70 -16 -17 -28 -40 -28 -53 0
-12 18 -89 40 -172 34 -129 44 -154 70 -177 18 -17 42 -28 58 -28 15 0 93 18
172 39 213 57 215 62 151 300 -58 216 -72 223 -296 161z"/>
<path d="M3415 1684 c-262 -67 -297 -78 -320 -102 -35 -35 -32 -78 14 -247 57
-206 69 -212 296 -149 147 40 167 50 185 94 11 27 9 44 -15 138 -42 162 -64
228 -79 241 -16 14 -66 29 -81 25z"/>
<path d="M2710 1499 c-122 -33 -149 -44 -172 -69 -16 -17 -28 -42 -28 -56 0
-27 62 -268 82 -317 25 -64 71 -70 217 -31 200 53 231 71 231 138 0 42 -75
313 -92 333 -13 16 -69 44 -85 42 -4 0 -73 -18 -153 -40z"/>
<path d="M2150 1348 c-218 -60 -218 -61 -160 -284 35 -136 45 -163 71 -186 39
-37 63 -36 221 7 141 38 155 44 179 72 29 33 28 62 -12 215 -44 167 -56 192
-101 207 -40 14 -31 16 -198 -31z"/>
</g>
</svg>
