<?xml version="1.0" standalone="no"?>
<!DOCTYPE svg PUBLIC "-//W3C//DTD SVG 20010904//EN"
 "http://www.w3.org/TR/2001/REC-SVG-20010904/DTD/svg10.dtd">
<svg version="1.0" xmlns="http://www.w3.org/2000/svg"
 width="512.000000pt" height="512.000000pt" viewBox="0 0 512.000000 512.000000"
 preserveAspectRatio="xMidYMid meet">

<g transform="translate(0.000000,512.000000) scale(0.100000,-0.100000)"
fill="#000000" stroke="none">
<path d="M2613 4863 c0 -147 -58 -258 -174 -333 -74 -48 -140 -64 -237 -58
-188 11 -323 140 -357 340 l-6 37 -97 -34 c-138 -50 -379 -171 -502 -252 -458
-303 -794 -738 -965 -1248 -89 -268 -126 -505 -121 -790 6 -373 75 -675 226
-992 124 -259 269 -469 452 -655 383 -388 838 -620 1378 -705 160 -25 528 -25
688 1 266 41 478 108 717 226 262 129 451 266 661 482 308 316 511 685 614
1113 83 343 86 730 9 1080 -95 434 -321 846 -639 1166 -244 245 -502 416 -819
544 -237 95 -560 165 -762 165 l-66 0 0 -87z m1160 -570 c31 -81 53 -151 49
-154 -4 -4 -578 -116 -1277 -248 -1104 -210 -1446 -278 -1280 -255 22 3 608
113 1303 246 695 132 1266 238 1269 235 11 -12 561 -1452 555 -1454 -4 -2
-116 -23 -249 -48 l-243 -44 -248 -223 c-870 -781 -960 -863 -949 -869 22 -12
239 -61 500 -113 l258 -52 -290 -394 -291 -394 -268 -64 c-306 -72 -267 -72
-529 -1 -432 118 -725 250 -1088 492 -167 112 -296 208 -293 217 4 12 910 830
926 837 7 3 72 -34 145 -83 73 -49 197 -128 277 -176 123 -74 147 -85 160 -74
8 7 202 174 430 371 228 197 419 361 424 366 5 4 0 6 -10 3 -10 -2 -366 -69
-790 -147 l-771 -143 -237 32 c-131 17 -240 35 -243 38 -4 4 27 388 68 854 87
998 81 1004 99 -98 6 -410 14 -751 16 -759 18 -56 20 86 9 679 -7 371 -16 786
-19 921 l-6 247 148 21 c81 12 165 26 187 30 22 5 77 15 123 21 93 14 106 9
136 -55 21 -44 20 -83 -3 -128 -21 -40 -9 -65 16 -31 38 52 35 131 -6 198
l-22 35 33 6 c18 3 62 10 98 15 36 5 107 16 159 25 89 15 95 15 113 -2 48 -44
62 -126 32 -185 -11 -21 -13 -33 -5 -41 7 -7 17 4 32 38 27 60 22 120 -14 174
l-26 39 62 8 c34 4 69 8 77 10 250 44 248 44 282 -32 19 -44 17 -86 -8 -135
-12 -25 -10 -39 7 -39 15 0 39 70 39 116 0 32 -8 61 -25 90 l-25 42 23 5 c12
3 45 9 72 12 28 4 101 16 163 27 110 19 115 19 134 1 49 -44 60 -103 32 -173
-9 -23 -14 -44 -10 -47 11 -12 36 20 47 60 13 50 5 101 -26 148 l-24 37 52 6
c29 3 107 16 175 27 120 21 123 21 144 3 48 -43 60 -116 29 -177 -10 -20 -15
-40 -10 -43 15 -9 27 4 44 51 15 38 16 52 6 92 -7 25 -21 59 -31 74 l-20 27
153 25 c83 13 157 25 163 26 5 0 36 -65 67 -146z m627 -526 c105 -70 96 -223
-16 -277 -51 -25 -87 -25 -140 1 -151 73 -97 299 71 299 37 0 61 -6 85 -23z
m-3710 -639 c57 -39 75 -72 75 -138 0 -97 -58 -155 -155 -155 -66 0 -99 18
-137 75 -89 131 86 306 217 218z m3970 -1173 l0 -265 -55 0 -55 0 0 -43 0 -42
-447 3 c-247 2 -449 5 -449 6 -1 0 -4 117 -7 259 l-5 257 54 0 54 0 0 45 0 45
455 0 455 0 0 -265z m-768 -645 c73 -34 124 -84 160 -158 29 -59 33 -76 32
-147 0 -102 -32 -173 -105 -239 -71 -64 -144 -89 -240 -84 -125 7 -225 72
-280 183 -20 43 -24 64 -24 145 0 110 17 154 89 228 71 75 146 104 252 98 44
-3 88 -12 116 -26z"/>
<path d="M3165 3825 c-291 -51 -676 -119 -855 -150 -504 -88 -835 -147 -837
-149 -1 -1 43 -274 98 -606 54 -333 99 -611 99 -617 0 -7 8 -13 18 -13 32 -1
1577 293 1587 302 5 4 -10 6 -35 2 l-45 -6 -34 134 c-19 73 -36 138 -38 144
-2 6 85 27 229 54 128 24 240 45 250 48 11 3 18 -5 23 -27 4 -17 11 -31 16
-31 5 0 4 12 -2 27 -6 17 -6 28 0 33 13 7 371 73 375 69 10 -13 95 -273 91
-277 -3 -3 -55 -15 -117 -27 -61 -12 -108 -24 -102 -27 9 -5 230 35 238 43 2
2 -52 166 -120 364 -68 198 -158 460 -200 583 -59 170 -80 222 -93 221 -9 0
-254 -43 -546 -94z m599 -52 c25 -75 45 -137 43 -138 -1 -1 -82 -18 -179 -37
l-178 -35 -26 86 c-14 47 -33 110 -41 138 -9 29 -15 54 -12 57 3 3 69 15 341
65 3 0 27 -61 52 -136z m-368 -75 c23 -76 40 -138 38 -138 -1 0 -105 -20 -230
-45 -129 -25 -231 -41 -234 -35 -8 13 -73 281 -69 284 8 6 415 74 434 73 16
-2 27 -26 61 -139z m-475 -86 c25 -99 34 -144 26 -147 -36 -10 -448 -87 -450
-84 -2 2 -17 70 -34 152 l-30 147 21 5 c51 13 402 73 415 72 9 -1 27 -51 52
-145z m-497 51 c10 -37 57 -285 54 -287 -12 -11 -441 -87 -447 -80 -10 11 -63
296 -56 302 4 5 400 79 432 81 6 1 14 -7 17 -16z m1440 -181 c25 -75 46 -142
46 -148 0 -7 -68 -25 -167 -43 -93 -18 -175 -34 -183 -36 -12 -4 -25 27 -59
140 -24 80 -41 148 -38 152 6 6 307 70 339 72 12 1 27 -31 62 -137z m-1879
-37 c15 -85 26 -157 24 -159 -6 -6 -463 -95 -467 -91 -6 6 -55 315 -51 320 4
3 421 81 455 84 6 1 23 -66 39 -154z m1501 -45 c24 -79 41 -146 39 -148 -2 -2
-108 -24 -236 -49 -155 -30 -234 -41 -238 -34 -11 18 -76 280 -70 285 6 6 441
94 453 92 5 -1 28 -67 52 -146z m-518 18 c38 -140 66 -257 62 -261 -3 -2 -109
-24 -236 -49 l-232 -44 -26 125 c-14 70 -27 137 -28 151 -3 24 0 25 207 66
116 23 218 42 227 43 11 1 20 -10 26 -31z m-451 -208 l30 -149 -51 -11 c-236
-48 -402 -77 -407 -72 -6 7 -47 219 -52 271 -2 24 2 25 208 67 116 23 217 42
226 43 13 1 22 -29 46 -149z m1450 -28 c30 -88 39 -124 30 -127 -20 -7 -339
-65 -357 -65 -13 0 -25 28 -53 122 -21 67 -35 123 -33 125 6 6 340 72 356 70
9 -2 30 -47 57 -125z m-1929 -24 c11 -62 24 -129 27 -150 6 -30 4 -37 -12 -42
-46 -14 -454 -88 -459 -83 -5 4 -54 290 -50 294 1 2 445 90 462 92 6 1 20 -46
32 -111z m1535 -50 c21 -67 36 -123 34 -125 -9 -8 -483 -91 -488 -85 -9 10
-64 241 -58 245 7 7 412 85 445 86 l31 1 36 -122z m-519 -20 c34 -120 48 -190
40 -197 -10 -9 -473 -96 -478 -90 -1 2 -14 59 -28 126 l-25 123 36 6 c20 4
122 24 226 45 105 20 195 38 202 38 6 1 18 -23 27 -51z m-475 -176 c12 -63 21
-115 19 -117 -5 -5 -459 -87 -462 -84 -5 7 -47 241 -43 245 2 2 104 23 228 47
150 29 226 40 230 33 3 -6 16 -62 28 -124z m-485 -54 c9 -51 19 -107 22 -123
l5 -31 -228 -42 c-125 -23 -235 -42 -244 -42 -15 0 -31 73 -53 234 -1 8 402
92 455 95 26 1 27 -2 43 -91z m1025 -25 c36 -138 61 -246 58 -249 -7 -7 -489
-95 -494 -90 -9 9 -64 279 -58 285 7 7 427 89 462 90 18 1 24 -7 32 -36z
m-484 -198 c16 -79 27 -146 25 -149 -8 -7 -459 -90 -464 -85 -6 6 -59 290 -54
293 4 3 429 83 449 85 12 1 22 -29 44 -144z m-482 -92 c15 -81 26 -148 24
-149 -4 -5 -489 -95 -491 -92 -7 9 -47 291 -42 296 6 5 432 88 466 91 13 1 22
-30 43 -146z"/>
<path d="M2838 3333 l-57 -56 -76 32 c-43 18 -80 30 -83 26 -9 -8 8 -20 68
-44 30 -13 59 -27 63 -31 5 -4 -17 -29 -47 -55 -53 -45 -67 -65 -47 -65 6 0
36 24 68 54 l59 54 64 -29 c71 -31 99 -37 82 -16 -6 6 -38 23 -71 37 l-60 25
55 56 c31 31 52 59 47 62 -5 3 -35 -19 -65 -50z"/>
<path d="M1757 1027 c-22 -69 -22 -67 11 -62 15 2 50 7 77 11 l50 6 -53 49
c-29 27 -57 49 -61 49 -4 0 -15 -24 -24 -53z"/>
</g>
</svg>
