<?xml version="1.0" standalone="no"?>
<!DOCTYPE svg PUBLIC "-//W3C//DTD SVG 20010904//EN"
 "http://www.w3.org/TR/2001/REC-SVG-20010904/DTD/svg10.dtd">
<svg version="1.0" xmlns="http://www.w3.org/2000/svg"
 width="512.000000pt" height="512.000000pt" viewBox="0 0 512.000000 512.000000"
 preserveAspectRatio="xMidYMid meet">

<g transform="translate(0.000000,512.000000) scale(0.100000,-0.100000)"
fill="#000000" stroke="none">
<path d="M2400 4364 c-303 -65 -539 -281 -622 -571 -19 -64 -22 -102 -22 -213
1 -117 5 -147 28 -225 135 -447 558 -685 994 -559 327 95 547 356 581 694 42
405 -224 789 -606 874 -88 20 -263 20 -353 0z m345 -65 c511 -122 726 -713
423 -1165 -110 -164 -299 -277 -516 -305 -349 -47 -691 168 -809 506 -25 73
-27 92 -27 225 0 138 1 150 32 238 108 312 345 501 657 525 67 5 156 -4 240
-24z"/>
<path d="M2415 4245 c-167 -36 -334 -145 -411 -267 -54 -86 -43 -89 32 -9 41
44 97 96 123 116 119 87 262 134 441 144 110 6 113 7 75 19 -51 15 -183 14
-260 -3z"/>
<path d="M2775 4210 c22 -10 42 -16 45 -14 9 10 -34 34 -59 33 -23 -1 -22 -3
14 -19z"/>
<path d="M1050 3940 c-220 -34 -394 -180 -445 -375 -62 -238 61 -513 276 -619
91 -44 189 -60 287 -46 224 31 383 167 446 379 21 71 21 211 0 282 -40 133
-140 267 -242 322 -92 49 -220 72 -322 57z m130 -60 c149 -24 290 -125 350
-251 38 -80 45 -132 30 -216 -15 -91 -53 -164 -115 -222 -91 -86 -209 -132
-340 -133 -261 -1 -430 187 -412 457 7 103 28 163 79 220 70 80 153 126 258
145 64 11 77 11 150 0z"/>
<path d="M1055 3819 c-114 -16 -240 -92 -280 -170 -28 -53 -15 -50 57 12 39
34 96 73 125 86 48 22 82 30 223 50 24 3 30 7 20 13 -24 12 -91 17 -145 9z"/>
<path d="M1244 3785 c24 -18 39 -20 34 -2 -3 6 -15 13 -29 15 -23 2 -23 2 -5
-13z"/>
<path d="M3914 3935 c-110 -20 -197 -66 -280 -149 -107 -107 -143 -198 -144
-356 0 -303 221 -530 515 -530 150 0 274 50 381 155 96 94 144 210 144 350 -1
270 -187 499 -435 535 -85 12 -91 12 -181 -5z m226 -71 c118 -33 222 -116 279
-223 27 -52 31 -69 31 -138 0 -98 -21 -172 -67 -241 -90 -132 -305 -221 -466
-193 -207 36 -337 209 -337 446 0 100 26 160 106 241 114 117 279 156 454 108z"/>
<path d="M3945 3840 c-3 -5 3 -10 14 -10 11 0 23 5 26 10 3 6 -3 10 -14 10
-11 0 -23 -4 -26 -10z"/>
<path d="M3815 3801 c-75 -36 -150 -110 -182 -179 -14 -29 -23 -55 -21 -57 2
-3 25 23 50 58 63 84 90 109 183 162 59 33 73 45 55 45 -14 0 -52 -13 -85 -29z"/>
<path d="M925 2801 c-298 -75 -489 -266 -593 -591 -30 -93 -69 -260 -93 -391
-11 -61 -10 -70 7 -100 21 -38 105 -86 164 -95 33 -5 37 -9 47 -54 16 -67 35
-93 93 -124 92 -50 172 -59 528 -60 l323 -1 -8 -60 c-13 -104 -10 -132 21
-164 33 -35 119 -74 199 -92 50 -11 57 -15 57 -36 0 -97 64 -184 161 -221 143
-53 406 -76 804 -69 426 7 603 34 718 107 50 31 86 90 87 140 1 57 9 67 68 80
86 18 180 66 203 103 18 28 20 44 16 122 l-5 90 306 0 c253 1 323 4 397 18
167 33 226 76 241 173 6 39 9 43 42 49 89 16 166 66 177 114 7 35 -49 321 -86
439 -91 282 -228 463 -426 562 -117 57 -201 75 -368 75 -169 0 -241 -16 -366
-81 -119 -63 -257 -200 -320 -319 l-23 -42 -60 51 c-118 100 -259 172 -416
213 -138 36 -348 43 -482 15 -161 -33 -309 -106 -440 -215 -38 -32 -71 -57
-73 -55 -2 2 -26 37 -53 78 -155 237 -385 361 -667 359 -70 0 -135 -7 -180
-18z m390 -65 c33 -9 94 -33 135 -53 94 -46 227 -175 290 -280 l42 -73 -39
-47 c-22 -27 -48 -60 -58 -75 -20 -33 -30 -30 -39 13 -8 40 -23 59 -47 59 -26
0 -31 -15 -20 -57 20 -71 -40 -250 -146 -437 -72 -128 -156 -214 -239 -246
-144 -55 -441 -26 -530 52 -53 47 -77 101 -82 188 -4 77 0 114 39 325 29 161
29 169 1 173 -17 3 -26 -4 -36 -30 -8 -18 -30 -58 -48 -90 -37 -60 -67 -146
-93 -271 -22 -101 -52 -139 -104 -135 -34 3 -36 5 -39 42 -4 49 50 291 90 406
58 165 130 282 234 381 90 85 185 134 319 165 77 18 287 12 370 -10z m2864 9
c86 -21 212 -81 288 -139 155 -118 264 -337 327 -664 33 -167 34 -212 6 -212
-70 0 -108 62 -140 227 -30 153 -56 228 -89 256 -16 13 -34 33 -40 45 -13 24
-49 30 -57 9 -2 -7 16 -85 42 -172 40 -140 45 -168 41 -225 -18 -219 -178
-302 -494 -256 -182 27 -282 72 -362 162 -88 101 -154 276 -156 419 0 68 -3
80 -18 83 -26 5 -44 -14 -51 -53 -9 -46 -20 -50 -41 -17 -10 15 -36 48 -58 75
l-39 47 48 78 c69 112 184 221 287 272 46 23 114 50 153 60 87 24 262 26 353
5z m-1354 -164 c302 -82 561 -330 694 -667 52 -131 83 -250 125 -477 39 -209
38 -232 -17 -266 -36 -21 -129 -51 -162 -51 -20 0 -23 11 -44 137 -25 155 -93
427 -143 578 -27 82 -37 100 -53 100 -31 0 -29 -33 9 -157 71 -228 146 -555
153 -665 10 -146 -25 -212 -132 -252 -173 -65 -819 -86 -1198 -40 -173 21
-286 69 -313 134 -25 62 -18 179 26 384 38 178 100 412 134 510 9 24 16 51 16
61 0 23 -30 35 -46 18 -28 -29 -135 -431 -178 -666 -13 -74 -27 -136 -30 -139
-10 -10 -127 26 -173 53 -23 13 -45 33 -48 44 -15 47 74 469 136 646 141 403
419 656 804 733 87 17 348 7 440 -18z"/>
<path d="M1003 2713 c-7 -2 -13 -9 -13 -15 0 -12 41 -6 41 7 1 12 -11 15 -28
8z"/>
<path d="M854 2669 c-80 -30 -204 -118 -246 -174 -21 -28 -38 -54 -38 -58 0
-5 30 18 68 49 84 72 147 112 242 154 41 19 79 37 85 42 18 16 -61 7 -111 -13z"/>
<path d="M3880 2700 c-12 -8 -11 -10 7 -10 12 0 25 5 28 10 8 13 -15 13 -35 0z"/>
<path d="M3777 2675 c-90 -25 -160 -66 -229 -137 -38 -37 -68 -72 -68 -78 0
-6 37 21 82 60 49 42 110 84 152 104 39 18 87 40 106 49 42 19 23 20 -43 2z"/>
<path d="M2395 2550 c-3 -5 3 -10 14 -10 11 0 23 5 26 10 3 6 -3 10 -14 10
-11 0 -23 -4 -26 -10z"/>
<path d="M2251 2514 c-115 -36 -271 -134 -357 -226 -84 -88 -85 -110 -3 -37
141 124 188 154 361 229 92 41 107 49 78 49 -19 -1 -55 -7 -79 -15z"/>
<path d="M3245 940 c-3 -5 3 -10 14 -10 11 0 23 5 26 10 3 6 -3 10 -14 10 -11
0 -23 -4 -26 -10z"/>
<path d="M3100 919 c-25 -4 -114 -15 -199 -23 -85 -9 -156 -18 -159 -21 -14
-13 43 -17 171 -12 139 6 231 22 285 52 l27 14 -40 -1 c-22 0 -60 -4 -85 -9z"/>
</g>
</svg>
