<?xml version="1.0" standalone="no"?>
<!DOCTYPE svg PUBLIC "-//W3C//DTD SVG 20010904//EN"
 "http://www.w3.org/TR/2001/REC-SVG-20010904/DTD/svg10.dtd">
<svg version="1.0" xmlns="http://www.w3.org/2000/svg"
 width="512.000000pt" height="512.000000pt" viewBox="0 0 512.000000 512.000000"
 preserveAspectRatio="xMidYMid meet">

<g transform="translate(0.000000,512.000000) scale(0.100000,-0.100000)"
fill="#000000" stroke="none">
<path d="M2163 5060 c-157 -24 -364 -79 -512 -135 l-116 -45 -40 45 -40 45
-107 -86 c-101 -83 -106 -88 -92 -108 7 -11 14 -23 14 -27 0 -3 -43 -34 -96
-69 -103 -67 -268 -197 -322 -253 -31 -31 -32 -35 -14 -39 11 -3 26 -16 34
-29 8 -13 131 -219 274 -458 l259 -435 6 58 c4 33 10 156 14 275 8 244 15 275
64 286 39 8 78 -14 87 -50 6 -23 -9 -497 -23 -745 -5 -101 -9 -117 -29 -137
-29 -29 -66 -29 -97 0 -13 12 -111 169 -218 349 -106 180 -194 326 -196 324
-2 -1 26 -123 62 -270 36 -146 65 -271 65 -277 0 -18 -48 -59 -70 -59 -12 0
-74 23 -138 51 -64 28 -133 58 -152 66 -28 12 -5 -15 112 -135 118 -121 148
-156 153 -186 5 -25 3 -43 -9 -60 -18 -29 -19 -29 -166 -56 -130 -24 -162 -31
-158 -35 2 -2 75 -15 163 -30 169 -29 200 -40 216 -82 13 -34 2 -51 -155 -252
-70 -90 -126 -164 -124 -166 2 -2 102 59 223 136 233 146 264 159 300 119 23
-26 23 -74 0 -100 -10 -11 -39 -32 -64 -47 -25 -14 -204 -127 -396 -249 -193
-122 -362 -228 -376 -234 -57 -26 -117 38 -90 96 6 14 115 158 242 322 200
256 229 297 213 304 -11 4 -152 30 -314 58 -324 56 -343 63 -348 123 -4 45 24
73 82 82 69 11 541 97 543 99 2 2 -103 113 -232 247 -129 134 -238 254 -241
267 -7 27 18 69 50 83 26 12 10 18 349 -130 104 -46 191 -80 193 -78 5 5 -204
858 -212 866 -8 8 -55 -42 -137 -144 -277 -344 -454 -752 -524 -1205 -22 -143
-25 -526 -5 -670 36 -257 111 -512 217 -738 l48 -102 18 30 c43 70 152 93 219
48 118 -81 74 -266 -68 -285 l-42 -6 47 -66 c60 -85 109 -146 202 -250 l75
-83 11 59 c23 127 84 208 202 267 62 31 83 58 83 106 0 105 58 231 145 315
196 190 244 323 345 970 96 610 193 898 368 1086 94 102 258 186 398 204 46 7
54 4 97 -26 60 -42 140 -51 216 -23 48 17 51 17 93 -1 265 -116 414 -361 522
-860 14 -66 46 -248 71 -404 59 -368 93 -537 131 -635 3 -9 -164 -15 -673 -26
-373 -7 -736 -16 -808 -19 -124 -6 -130 -7 -133 -28 -3 -19 2 -22 60 -27 90
-8 377 -15 1038 -26 l575 -10 25 -32 c14 -18 49 -58 78 -89 l52 -56 -50 -27
c-27 -15 -50 -29 -50 -30 0 -2 26 3 58 10 31 8 62 14 68 14 27 0 95 -135 108
-216 l7 -41 -678 -6 c-702 -7 -1486 -23 -1561 -33 -37 -5 -43 -8 -40 -27 3
-21 9 -22 164 -29 337 -14 1184 -28 1672 -28 l508 0 52 -26 c137 -68 204 -252
158 -434 -19 -77 -40 -109 -87 -133 -34 -18 -34 -18 106 -15 127 3 143 5 172
26 49 34 75 115 78 234 l2 98 71 82 c70 83 194 256 243 339 21 37 39 51 104
83 174 86 285 267 285 466 0 59 -24 151 -56 217 l-25 53 17 127 c23 173 23
474 0 648 -21 151 -79 391 -127 520 l-34 90 -6 -160 c-6 -127 -13 -181 -34
-260 -49 -185 -156 -376 -275 -489 -69 -66 -97 -71 -141 -27 -43 44 -38 70 29
148 112 131 183 261 223 408 33 124 37 338 9 475 -49 239 -162 444 -335 609
-193 183 -408 271 -672 274 -122 2 -134 4 -155 24 -29 30 -30 86 0 115 16 16
40 24 89 29 73 8 238 -4 306 -21 23 -6 51 -13 62 -16 38 -10 -151 106 -285
175 -264 135 -556 222 -855 256 l-60 6 47 -30 c154 -99 238 -276 210 -443 -22
-126 -85 -226 -185 -293 l-50 -34 -42 44 c-49 53 -97 75 -165 75 -61 0 -122
-28 -167 -78 l-33 -36 -55 39 c-100 68 -163 169 -186 294 -29 167 47 341 190
433 l45 28 -35 -1 c-18 0 -89 -9 -156 -19z m-258 -655 c52 -51 15 -135 -60
-135 -46 0 -85 36 -85 80 0 71 94 107 145 55z m1890 -89 c387 -116 655 -460
672 -864 12 -272 -65 -485 -241 -669 -51 -54 -64 -63 -94 -63 -49 0 -82 32
-82 80 0 32 10 48 65 110 78 87 149 222 170 325 73 350 -100 712 -415 870
-104 52 -171 67 -323 74 -130 6 -140 7 -158 30 -34 42 -17 109 35 132 11 5 80
7 151 5 104 -3 148 -9 220 -30z m-170 -321 c285 -74 477 -317 478 -605 0 -108
-15 -174 -64 -277 -41 -85 -140 -206 -180 -218 -52 -17 -109 27 -109 82 0 26
11 46 56 94 127 138 162 314 96 486 -41 108 -121 190 -239 245 -59 28 -79 32
-190 37 -109 5 -126 8 -139 26 -36 49 -25 106 26 132 35 18 193 16 265 -2z
m1196 -1805 c16 -9 19 -22 19 -90 0 -94 -6 -100 -110 -119 -36 -7 -81 -17
-101 -22 l-37 -9 -3 -154 c-4 -137 -6 -158 -25 -182 -69 -93 -181 -95 -242 -4
-32 47 -27 127 9 166 50 54 116 68 173 39 15 -8 30 -15 32 -15 2 0 4 74 4 164
0 126 3 166 14 175 7 6 65 22 127 35 63 13 115 24 117 25 2 1 12 -4 23 -9z
m-3764 -246 c33 -21 41 -79 16 -112 -28 -37 -63 -48 -102 -32 -73 30 -70 130
4 160 23 10 50 4 82 -16z"/>
<path d="M2508 4870 c-46 -8 -79 -30 -115 -77 -24 -32 -28 -45 -28 -104 0 -59
4 -73 30 -110 37 -53 92 -82 165 -87 160 -12 256 159 163 291 -48 69 -128 101
-215 87z"/>
<path d="M1164 525 c95 -77 385 -219 588 -286 136 -46 330 -92 339 -81 3 4 38
50 79 102 40 52 76 98 80 103 3 4 28 -47 54 -114 40 -99 53 -122 75 -131 31
-12 370 -4 476 12 125 18 125 18 125 51 0 71 105 109 149 53 11 -14 21 -30 23
-35 8 -25 285 70 468 160 116 57 254 136 300 171 25 19 10 20 -1380 19 l-1405
0 29 -24z"/>
</g>
</svg>
