<?xml version="1.0" standalone="no"?>
<!DOCTYPE svg PUBLIC "-//W3C//DTD SVG 20010904//EN"
 "http://www.w3.org/TR/2001/REC-SVG-20010904/DTD/svg10.dtd">
<svg version="1.0" xmlns="http://www.w3.org/2000/svg"
 width="512.000000pt" height="512.000000pt" viewBox="0 0 512.000000 512.000000"
 preserveAspectRatio="xMidYMid meet">

<g transform="translate(0.000000,512.000000) scale(0.100000,-0.100000)"
fill="#000000" stroke="none">
<path d="M2332 4980 c-619 -60 -1163 -336 -1555 -788 -356 -410 -537 -808
-597 -1306 -15 -125 -13 -420 4 -556 16 -127 54 -321 65 -333 4 -4 38 29 77
72 38 44 71 80 74 80 3 0 28 -32 55 -70 59 -83 237 -258 317 -313 91 -62 87
-31 -4 36 -103 76 -216 189 -292 290 l-58 78 33 37 c94 108 253 283 255 280 1
-1 34 -51 74 -111 76 -114 223 -275 315 -346 91 -70 80 -34 -13 44 -48 41
-118 109 -156 152 -69 80 -196 262 -196 282 0 5 64 81 142 167 l142 157 15
-33 c55 -125 123 -249 186 -344 85 -126 196 -257 209 -245 4 4 -22 43 -59 87
-126 147 -264 376 -316 525 l-13 37 109 118 c227 246 378 403 382 400 13 -14
67 -344 88 -549 4 -32 11 -58 17 -58 22 0 -15 319 -61 530 l-21 94 22 23 c22
24 156 119 180 128 9 4 28 -14 52 -49 64 -93 173 -163 306 -197 78 -20 302
-18 413 4 264 53 458 170 532 321 15 31 32 56 39 56 6 -1 44 -14 85 -30 l73
-29 6 22 c12 47 83 175 126 226 89 108 211 188 356 232 96 30 270 33 370 6
224 -59 411 -230 490 -445 85 -233 45 -487 -108 -686 -36 -46 -42 -60 -31 -67
42 -26 42 -22 5 -134 -58 -172 -164 -360 -278 -494 l-28 -32 -202 97 c-112 53
-206 99 -210 103 -4 3 14 40 39 81 101 163 192 392 228 568 16 79 15 107 -4
86 -4 -5 -16 -47 -25 -93 -37 -177 -133 -413 -232 -567 l-39 -61 -154 74 c-85
40 -156 75 -158 77 -2 2 -14 94 -27 205 -21 189 -28 223 -42 208 -6 -5 82
-822 111 -1040 19 -134 19 -123 -7 -133 -14 -5 45 -10 156 -11 l179 -3 33 39
c58 67 141 78 203 25 16 -13 35 -39 40 -57 l11 -33 112 -18 c156 -25 235 -51
275 -91 18 -18 33 -42 33 -54 0 -33 -54 -85 -127 -120 -73 -36 -263 -101 -356
-122 -32 -7 -60 -15 -62 -19 -2 -4 42 -15 98 -24 139 -25 280 -62 350 -93 58
-26 107 -72 107 -99 0 -112 -250 -188 -888 -270 -34 -4 -42 -9 -38 -22 2 -9
15 -119 27 -244 l23 -228 103 55 c490 259 897 720 1101 1245 13 36 40 112 58
170 l33 105 -28 -34 -29 -35 -121 59 c-66 32 -121 61 -121 63 0 2 20 27 44 55
93 110 189 274 246 422 28 73 36 83 52 67 23 -23 28 -11 28 66 0 236 -54 523
-148 792 -39 112 -161 351 -237 465 -380 569 -996 952 -1699 1056 -153 22
-431 32 -564 19z m173 -156 c180 -22 387 -162 477 -321 24 -43 37 -55 67 -63
40 -11 84 -51 99 -90 5 -14 15 -58 22 -97 11 -68 10 -76 -9 -116 -14 -29 -35
-51 -61 -66 -31 -17 -42 -31 -50 -64 -7 -23 -25 -73 -42 -110 l-31 -68 23 -47
c42 -87 42 -96 1 -135 -74 -71 -184 -122 -330 -155 -60 -13 -125 -17 -306 -16
-216 0 -236 2 -328 27 -53 14 -121 39 -150 54 -59 32 -68 56 -43 118 16 37 16
38 -14 71 -16 19 -36 47 -44 63 -10 18 -26 30 -45 34 -49 10 -98 61 -110 115
-29 134 -24 182 28 237 21 21 33 51 45 105 44 200 188 376 381 466 141 65 249
80 420 58z m1048 -318 c54 -22 87 -70 87 -124 0 -85 -54 -143 -134 -144 -151
-3 -200 196 -65 264 41 22 69 22 112 4z m-2433 -629 c3 -3 79 3 170 14 91 10
174 19 185 18 14 0 -14 -32 -99 -113 l-119 -114 110 -133 c61 -74 110 -135
109 -136 0 -1 -85 23 -188 54 l-187 55 -146 -111 c-80 -60 -145 -105 -145 -99
0 7 14 83 31 171 16 88 29 160 27 162 -2 2 -63 37 -137 78 l-134 75 44 6 c24
3 101 8 171 12 l128 6 10 37 c5 20 26 106 46 191 l37 155 41 -162 c23 -89 43
-164 46 -166z m1880 -291 c-111 -162 -403 -276 -705 -276 -182 0 -305 38 -403
124 -47 42 -105 123 -97 137 3 4 30 -7 59 -25 103 -62 242 -94 451 -103 298
-12 559 47 685 156 19 17 36 30 38 31 2 0 -11 -20 -28 -44z m-2279 -619 c65
-43 86 -124 49 -185 -56 -91 -187 -96 -240 -9 -26 41 -26 112 -1 153 38 62
131 82 192 41z m4164 -424 c-56 -149 -170 -343 -269 -457 l-34 -40 -194 93
c-106 51 -195 94 -197 96 -2 2 19 32 46 67 114 143 205 312 259 479 l27 87
194 -129 193 -129 -25 -67z"/>
<path d="M2295 4595 c-268 -60 -460 -240 -496 -468 -35 -218 137 -429 394
-484 97 -20 257 -13 352 17 288 90 476 333 436 564 -31 181 -184 328 -389 371
-83 18 -217 18 -297 0z m449 -144 c61 -40 123 -168 133 -272 15 -154 -85 -267
-181 -204 -52 34 -115 210 -116 320 0 60 19 115 50 147 34 33 72 36 114 9z"/>
<path d="M3264 3583 c18 -82 46 -269 51 -345 4 -52 11 -88 17 -88 23 0 -6 288
-41 418 -13 46 -37 60 -27 15z"/>
<path d="M2426 3099 c-264 -16 -293 -20 -335 -41 -53 -28 -100 -89 -110 -144
-4 -22 1 -161 10 -310 18 -284 23 -307 73 -362 26 -29 69 -53 115 -63 38 -9
689 63 737 81 67 25 133 119 134 188 0 33 -55 462 -66 514 -10 49 -62 108
-117 134 -61 28 -49 28 -441 3z m421 -20 c35 -13 80 -55 99 -92 23 -44 83
-521 72 -571 -12 -55 -49 -100 -100 -124 -53 -24 -683 -99 -742 -88 -49 9
-111 66 -130 119 -10 28 -21 132 -32 306 -15 245 -15 266 1 307 20 52 71 99
122 114 39 10 430 36 590 39 50 0 104 -4 120 -10z"/>
<path d="M2446 2949 c-269 -19 -274 -21 -320 -82 -27 -36 -27 -112 0 -158 11
-19 36 -43 56 -54 36 -19 38 -19 312 2 240 18 280 24 310 42 92 58 78 214 -24
255 -22 9 -50 15 -63 15 -12 -1 -134 -10 -271 -20z m328 -19 c37 -14 66 -67
66 -118 0 -35 -6 -49 -29 -72 -16 -16 -39 -31 -52 -34 -57 -13 -533 -44 -553
-36 -13 4 -35 23 -49 40 -49 58 -27 162 39 188 16 6 119 17 229 25 255 18 318
19 349 7z"/>
<path d="M2649 2502 c-25 -23 -32 -36 -33 -71 -1 -36 4 -47 32 -72 44 -39 90
-39 134 0 27 24 33 36 33 71 0 35 -6 47 -33 71 -43 39 -90 39 -133 1z m124
-24 c33 -39 18 -97 -32 -117 -60 -25 -117 34 -95 98 18 52 90 63 127 19z"/>
<path d="M2294 2500 c-65 -26 -83 -109 -35 -162 24 -27 36 -33 71 -33 35 0 47
6 71 33 20 22 29 43 29 67 0 64 -78 119 -136 95z m76 -30 c30 -16 42 -67 25
-101 -42 -81 -169 -22 -135 62 19 46 66 63 110 39z"/>
<path d="M1637 2693 c-4 -6 -1 -52 4 -104 6 -52 11 -270 10 -491 -1 -346 1
-398 14 -398 13 0 15 49 15 364 0 441 -16 673 -43 629z"/>
<path d="M3473 1743 c3 -21 11 -97 18 -170 15 -153 -1 -139 159 -149 96 -6
120 -4 260 26 319 67 520 146 520 206 0 33 -155 81 -315 99 l-61 6 -16 -35
c-21 -43 -69 -69 -127 -68 -53 0 -87 24 -119 80 l-23 42 -151 0 -151 0 6 -37z"/>
<path d="M3155 1763 c-22 -2 -88 -15 -146 -28 -317 -75 -561 -99 -901 -92
-244 5 -337 -2 -210 -17 225 -25 542 -16 807 25 143 21 421 81 481 103 40 15
38 15 -31 9z"/>
<path d="M698 1617 c-28 -24 -44 -52 -66 -112 -17 -44 -42 -106 -56 -139 -14
-32 -26 -63 -26 -68 0 -17 128 -197 204 -288 89 -106 224 -241 324 -322 95
-76 312 -220 327 -215 9 3 94 385 95 427 0 12 -31 20 -142 38 -79 13 -195 35
-258 49 -286 63 -400 151 -310 241 l30 30 -35 21 c-67 39 -66 106 1 158 32 24
33 26 18 48 -9 13 -26 54 -39 90 -12 36 -24 68 -26 70 -2 2 -21 -11 -41 -28z"/>
<path d="M812 1377 c-21 -23 -21 -24 -5 -40 31 -28 123 -51 123 -31 0 11 -75
94 -85 94 -7 0 -21 -10 -33 -23z"/>
<path d="M3625 1327 c-55 -11 -102 -21 -103 -23 -2 -1 4 -76 14 -167 l17 -165
36 4 c20 2 92 9 161 15 168 14 365 44 469 70 102 25 209 71 217 94 20 52 -129
112 -386 155 -107 18 -299 41 -317 39 -4 -1 -53 -10 -108 -22z"/>
<path d="M865 1207 c-22 -12 -40 -29 -40 -37 0 -39 118 -85 325 -126 116 -22
360 -54 369 -48 2 2 9 28 16 59 l13 55 -107 0 c-116 0 -226 22 -300 60 -23 11
-78 27 -124 36 -45 8 -89 17 -97 19 -8 3 -33 -6 -55 -18z"/>
<path d="M2740 785 c-36 -7 -131 -13 -212 -14 -81 -1 -149 -5 -152 -10 -9 -15
21 -21 101 -21 56 0 74 -3 71 -12 -25 -71 -150 -539 -145 -544 6 -7 377 -8
383 -1 3 3 -82 469 -100 549 -3 13 9 19 63 28 84 14 101 19 101 31 0 11 -26
10 -110 -6z"/>
</g>
</svg>
