<?xml version="1.0" standalone="no"?>
<!DOCTYPE svg PUBLIC "-//W3C//DTD SVG 20010904//EN"
 "http://www.w3.org/TR/2001/REC-SVG-20010904/DTD/svg10.dtd">
<svg version="1.0" xmlns="http://www.w3.org/2000/svg"
 width="512.000000pt" height="512.000000pt" viewBox="0 0 512.000000 512.000000"
 preserveAspectRatio="xMidYMid meet">

<g transform="translate(0.000000,512.000000) scale(0.100000,-0.100000)"
fill="#000000" stroke="none">
<path d="M1825 4745 c-24 -24 -25 -28 -25 -185 l0 -160 1580 0 1580 0 0 150
c0 157 -9 200 -45 214 -9 3 -703 6 -1541 6 l-1525 0 -24 -25z m2390 -140 c14
-13 25 -30 25 -38 0 -26 -41 -67 -66 -67 -31 0 -64 33 -64 65 0 30 32 65 60
65 12 0 32 -11 45 -25z m609 -1 c8 -22 7 -67 -2 -82 -7 -9 -57 -12 -218 -10
l-209 3 -3 39 c-6 69 -15 66 217 66 181 0 210 -2 215 -16z"/>
<path d="M1212 4270 c-417 -37 -659 -189 -712 -447 -28 -134 1 -366 67 -530
l26 -64 21 37 c26 46 73 76 125 78 l39 1 11 66 c12 62 15 67 52 89 65 36 155
115 171 152 10 20 20 89 27 175 6 78 17 158 25 177 18 43 52 54 114 37 39 -10
46 -9 69 9 39 31 102 27 135 -7 31 -33 76 -129 124 -267 19 -55 43 -114 54
-131 40 -64 179 -111 305 -103 l56 3 9 -35 c5 -19 15 -65 21 -103 11 -57 15
-66 30 -62 25 8 92 -11 123 -36 15 -12 28 -20 30 -18 2 2 12 47 22 99 26 130
27 445 1 538 -45 166 -165 269 -378 323 -68 17 -120 22 -279 24 -107 2 -237 0
-288 -5z"/>
<path d="M2758 3720 c-46 -14 -85 -48 -107 -93 -20 -42 -21 -57 -21 -498 0
-512 3 -546 40 -466 12 25 22 33 47 35 27 3 34 -2 47 -26 8 -16 18 -53 21 -83
10 -90 12 -94 58 -116 l44 -21 19 61 c20 67 56 117 84 117 10 0 28 -8 41 -19
22 -17 23 -26 24 -122 l0 -104 80 -17 c237 -49 509 -3 731 124 107 61 131 81
155 133 17 37 19 74 19 499 0 448 -1 461 -21 504 -13 26 -38 54 -62 70 l-41
27 -565 2 c-311 1 -578 -2 -593 -7z"/>
<path d="M1000 3428 c-24 -13 -46 -29 -48 -36 -3 -9 14 -4 47 12 58 30 135 35
181 11 19 -10 31 -11 35 -5 10 16 -60 40 -118 40 -35 0 -67 -8 -97 -22z"/>
<path d="M1557 3434 c-37 -20 -25 -38 13 -19 42 22 123 19 170 -5 22 -11 40
-23 40 -26 0 -2 -21 -2 -47 1 -61 8 -130 -13 -182 -54 -39 -31 -91 -118 -91
-153 0 -29 -57 -25 -63 5 l-4 22 -8 -22 c-10 -32 -33 -29 -41 5 -56 230 -363
270 -468 60 -84 -168 36 -360 224 -359 69 0 113 17 164 61 38 33 76 96 76 125
0 12 13 15 59 15 l58 0 17 -44 c21 -55 77 -113 134 -138 52 -23 145 -26 194
-5 49 20 105 73 131 121 30 57 30 165 0 222 -23 44 -89 108 -121 118 -11 4
-19 14 -18 24 1 11 -15 25 -44 40 -53 26 -149 30 -193 6z m-327 -149 c10 -12
-4 -32 -88 -122 -55 -60 -116 -124 -136 -143 -34 -32 -37 -33 -53 -18 -15 15
-6 27 118 157 74 77 137 141 140 141 4 0 12 -7 19 -15z m610 0 c10 -12 -4 -32
-88 -122 -55 -60 -116 -124 -136 -143 -34 -32 -37 -33 -53 -18 -15 15 -6 27
118 157 74 77 137 141 140 141 4 0 12 -7 19 -15z m-550 -90 c0 -22 -240 -245
-263 -245 -17 0 11 33 112 134 126 126 151 145 151 111z m610 1 c0 -23 -239
-246 -263 -246 -17 0 9 30 112 134 126 126 151 145 151 112z"/>
<path d="M689 3252 c48 -23 48 -35 2 -55 -26 -12 -44 -29 -56 -53 -15 -33 -16
-40 -2 -74 13 -35 13 -42 -10 -111 -28 -82 -27 -161 1 -204 14 -21 14 -28 1
-66 -35 -99 -6 -176 75 -200 31 -9 42 -19 50 -44 22 -66 86 -91 185 -74 60 10
94 23 85 32 -3 3 -33 -2 -67 -10 -96 -24 -172 1 -187 62 -5 21 -1 31 24 51 33
28 42 80 15 90 -22 9 -43 -13 -57 -57 -6 -22 -17 -39 -25 -39 -23 0 -72 29
-83 49 -13 25 -13 90 0 127 9 27 14 29 49 26 31 -3 42 0 55 19 20 29 20 53 1
72 -19 20 -50 11 -76 -21 -17 -22 -22 -24 -29 -12 -27 43 -24 149 6 212 17 36
17 36 68 31 48 -5 54 -3 84 27 25 25 32 40 32 72 0 39 -7 49 -71 105 -8 6 -25
23 -38 37 -13 14 -33 26 -45 26 -17 0 -14 -4 13 -18z m49 -489 c4 -24 -33 -54
-54 -46 -20 7 -17 23 8 50 25 27 42 25 46 -4z m66 -217 c-3 -9 -15 -21 -26
-27 -18 -10 -19 -8 -13 13 10 33 27 50 37 40 5 -5 6 -16 2 -26z"/>
<path d="M1406 3040 c3 -14 18 -44 31 -68 33 -56 26 -84 -29 -110 -24 -12 -36
-21 -27 -22 9 0 31 10 50 23 47 31 48 61 4 138 -20 35 -33 53 -29 39z"/>
<path d="M1345 2683 c-22 -3 -44 -9 -50 -15 -7 -8 -5 -9 8 -4 10 3 58 7 105 7
62 1 78 4 57 9 -32 8 -58 9 -120 3z"/>
<path d="M1770 1943 c-11 -37 -69 -232 -129 -433 -60 -201 -110 -357 -110
-348 -1 9 -22 73 -47 143 l-46 126 65 86 66 86 -63 76 c-54 65 -69 76 -97 78
-32 2 -38 -3 -105 -91 l-72 -93 59 -69 c32 -38 59 -76 58 -84 0 -22 -56 -290
-61 -295 -2 -3 -78 191 -167 430 -187 497 -155 452 -293 409 -117 -36 -314
-135 -407 -204 -171 -126 -207 -215 -218 -530 -7 -202 28 -817 52 -928 l5 -22
1134 0 1133 0 6 43 c3 23 14 143 24 265 l17 224 30 -6 c121 -24 230 -14 325
32 31 14 79 49 107 77 92 92 134 203 133 354 l0 96 -23 -61 c-29 -79 -66 -126
-142 -180 -92 -66 -172 -96 -274 -101 -145 -9 -252 26 -346 110 -29 26 -66 69
-84 96 -43 69 -96 202 -114 291 -11 52 -38 119 -87 217 -60 119 -71 148 -66
176 l5 35 -71 20 c-40 11 -88 24 -107 27 -19 4 -43 9 -52 11 -14 4 -21 -9 -38
-63z m-253 -855 c-3 -8 -6 -5 -6 6 -1 11 2 17 5 13 3 -3 4 -12 1 -19z m-30
-100 c-3 -8 -6 -5 -6 6 -1 11 2 17 5 13 3 -3 4 -12 1 -19z m-30 -100 c-3 -8
-6 -5 -6 6 -1 11 2 17 5 13 3 -3 4 -12 1 -19z m-31 -104 c-4 -9 -9 -15 -11
-12 -3 3 -3 13 1 22 4 9 9 15 11 12 3 -3 3 -13 -1 -22z"/>
<path d="M2675 1784 c-69 -9 -195 -37 -195 -43 0 -3 19 -17 42 -30 63 -36 146
-119 180 -179 17 -29 33 -51 36 -48 2 3 -10 31 -29 62 -37 62 -122 145 -177
173 l-35 18 44 12 c24 7 109 15 189 18 124 4 155 1 215 -15 128 -36 123 -35
100 -21 -54 35 -275 66 -370 53z"/>
<path d="M2350 1766 c0 -2 8 -10 18 -17 15 -13 16 -12 3 4 -13 16 -21 21 -21
13z"/>
</g>
</svg>
