<?xml version="1.0" standalone="no"?>
<!DOCTYPE svg PUBLIC "-//W3C//DTD SVG 20010904//EN"
 "http://www.w3.org/TR/2001/REC-SVG-20010904/DTD/svg10.dtd">
<svg version="1.0" xmlns="http://www.w3.org/2000/svg"
 width="512.000000pt" height="512.000000pt" viewBox="0 0 512.000000 512.000000"
 preserveAspectRatio="xMidYMid meet">

<g transform="translate(0.000000,512.000000) scale(0.100000,-0.100000)"
fill="#000000" stroke="none">
<path d="M3630 4863 c-210 -7 -438 -26 -465 -38 -39 -17 -80 -61 -100 -108 -9
-21 -21 -87 -27 -146 l-11 -108 -147 -7 c-133 -6 -152 -5 -201 14 -65 24 -105
63 -148 146 -18 33 -44 67 -60 77 -71 42 -88 41 -674 -23 -518 -57 -555 -62
-607 -88 -65 -33 -85 -58 -105 -137 -35 -137 -106 -188 -322 -230 -229 -45
-294 -97 -302 -244 -8 -169 61 -991 130 -1541 79 -635 236 -1733 252 -1772 16
-39 72 -91 125 -116 72 -34 692 -15 1122 33 189 22 561 76 585 85 16 7 810
693 878 759 17 17 17 28 -3 302 -57 769 -120 1345 -209 1909 -16 102 -28 186
-27 188 4 3 440 -20 444 -24 2 -1 -13 -35 -34 -75 -37 -69 -107 -150 -189
-216 l-40 -32 30 0 c43 -1 178 57 260 110 71 47 141 110 206 187 l36 42 89 0
c161 1 427 26 459 42 99 52 126 153 126 483 0 401 -37 486 -218 506 -205 22
-582 32 -853 22z m87 -178 c100 -45 168 -144 161 -236 l-3 -44 -139 -3 c-93
-2 -143 1 -152 9 -19 16 -20 295 -1 302 20 9 79 -4 134 -28z m-249 -48 c7 -8
13 -71 14 -153 l3 -139 130 -2 c179 -4 179 -4 171 -56 -17 -108 -99 -208 -205
-248 -72 -27 -175 -23 -241 10 -253 128 -233 491 33 582 63 22 81 23 95 6z
m804 -53 c31 -6 39 -12 48 -40 14 -42 5 -91 -20 -104 -27 -14 -175 -22 -255
-13 -68 8 -69 9 -83 45 -8 20 -12 48 -8 62 6 26 24 31 160 46 99 10 116 11
158 4z m337 -240 c35 -7 43 -37 14 -52 -10 -5 -164 -11 -342 -13 -298 -4 -325
-3 -335 13 -19 31 8 43 112 49 141 8 514 10 551 3z m-288 -164 c27 -15 24 -39
-7 -50 -14 -6 -99 -10 -189 -10 -152 0 -165 1 -175 19 -7 15 -6 23 6 35 13 13
44 16 180 16 95 0 174 -4 185 -10z m-1785 -506 c16 -39 18 -88 4 -114 -6 -11
-27 -24 -48 -29 -96 -25 -739 -98 -767 -88 -41 16 -72 121 -42 145 23 18 556
110 700 121 122 8 136 5 153 -35z m-1026 -49 c16 -19 7 -42 -60 -154 -56 -93
-58 -98 -50 -141 5 -25 12 -92 16 -150 7 -117 -5 -166 -48 -194 -39 -26 -203
-50 -341 -50 l-129 -1 -28 31 c-35 40 -63 181 -64 331 -1 102 -1 103 30 134
51 51 139 71 328 75 l159 4 67 65 c68 65 97 78 120 50z m1498 -207 c18 -18 15
-36 -8 -48 -31 -17 -1228 -116 -1248 -103 -27 16 -27 51 0 62 24 10 177 26
593 61 481 41 643 48 663 28z m-660 -265 c2 -13 -4 -26 -16 -32 -10 -5 -141
-20 -291 -33 -269 -22 -273 -22 -287 -3 -19 26 -18 32 9 49 32 20 276 44 442
42 136 -1 140 -2 143 -23z m287 -403 c8 -16 15 -49 15 -74 0 -69 -19 -79 -207
-105 -297 -40 -567 -67 -621 -62 -15 1 -51 76 -52 107 0 12 6 27 14 34 31 25
640 128 768 129 65 1 68 0 83 -29z m-1015 -82 c0 -12 -28 -66 -62 -121 l-61
-101 11 -86 c7 -48 12 -123 12 -166 0 -140 -26 -158 -263 -189 -196 -25 -255
-16 -298 45 -23 32 -49 191 -52 311 -2 77 1 99 16 121 39 58 160 88 365 92
l144 3 61 60 c34 34 69 63 77 65 23 8 50 -10 50 -34z m1495 -208 c0 -34 -8
-35 -375 -66 -168 -14 -433 -36 -589 -49 -197 -17 -289 -21 -302 -14 -22 11
-25 42 -6 58 14 11 358 47 722 75 110 9 218 18 240 19 22 2 101 3 175 3 l135
-1 0 -25z m-671 -226 c45 -45 12 -54 -286 -80 -280 -23 -308 -22 -308 15 0 33
24 41 166 56 277 29 405 32 428 9z m290 -449 c36 -36 33 -129 -4 -156 -28 -20
-241 -52 -594 -89 -219 -22 -218 -22 -243 37 -17 42 -17 78 1 92 15 13 127 36
393 81 316 53 420 61 447 35z m-1006 -90 c1 -11 -26 -69 -61 -128 -61 -103
-64 -111 -56 -150 5 -23 11 -92 15 -153 8 -124 -4 -167 -54 -196 -35 -20 -189
-47 -318 -55 -115 -7 -164 8 -190 59 -19 36 -40 154 -49 274 -12 148 12 188
131 219 89 24 293 40 342 28 l40 -10 69 69 c58 58 73 68 98 66 21 -2 31 -9 33
-23z m1500 -212 c5 -33 -16 -38 -233 -56 -104 -9 -378 -33 -608 -52 -437 -38
-447 -38 -447 5 0 10 6 22 13 28 16 14 435 54 977 95 25 2 101 3 170 3 122 -1
125 -2 128 -23z m-690 -219 c15 -4 22 -14 22 -30 0 -16 -8 -27 -22 -33 -13 -4
-142 -18 -288 -30 l-265 -22 -18 22 c-17 22 -17 23 0 40 14 14 52 22 168 33
245 26 360 31 403 20z"/>
<path d="M4169 3206 c-212 -47 -394 -227 -439 -437 -18 -81 -8 -240 18 -313
71 -195 244 -346 435 -379 37 -6 67 -15 67 -19 0 -22 -42 -87 -79 -123 -23
-21 -41 -43 -41 -48 0 -6 28 -8 66 -4 120 9 233 85 265 177 9 23 25 38 73 61
263 130 381 387 309 674 -23 93 -70 173 -149 253 -140 141 -335 199 -525 158z
m149 -198 c7 -7 12 -23 12 -37 0 -20 9 -30 41 -44 42 -20 109 -98 109 -128 0
-22 -41 -52 -62 -44 -8 3 -31 26 -52 50 -46 56 -81 60 -120 14 -14 -17 -26
-38 -26 -47 0 -8 23 -36 51 -61 150 -135 187 -176 199 -219 10 -39 9 -49 -12
-90 -19 -38 -33 -52 -75 -72 -43 -20 -53 -30 -53 -51 0 -31 -17 -49 -45 -49
-29 0 -45 19 -45 52 0 18 -7 31 -22 39 -63 32 -111 100 -97 137 14 36 56 29
99 -18 30 -32 44 -40 72 -40 40 0 88 32 88 59 0 26 -55 85 -135 144 -78 58
-115 113 -115 170 0 51 33 112 75 140 27 17 35 29 35 53 0 35 16 54 45 54 12
0 26 -5 33 -12z"/>
</g>
</svg>
