<?xml version="1.0" standalone="no"?>
<!DOCTYPE svg PUBLIC "-//W3C//DTD SVG 20010904//EN"
 "http://www.w3.org/TR/2001/REC-SVG-20010904/DTD/svg10.dtd">
<svg version="1.0" xmlns="http://www.w3.org/2000/svg"
 width="512.000000pt" height="512.000000pt" viewBox="0 0 512.000000 512.000000"
 preserveAspectRatio="xMidYMid meet">

<g transform="translate(0.000000,512.000000) scale(0.100000,-0.100000)"
fill="#000000" stroke="none">
<path d="M223 5101 c-72 -24 -127 -65 -163 -120 -64 -96 -60 55 -58 -2201 l3
-2055 26 -56 c33 -69 88 -124 159 -158 l55 -26 996 -3 997 -2 4 -118 c3 -100
7 -125 29 -173 94 -200 359 -249 514 -94 21 21 49 63 64 94 22 48 26 73 29
173 l4 118 997 2 996 3 56 26 c71 33 125 87 158 158 l26 56 3 1680 c2 1205 -1
1688 -9 1707 -15 37 -60 54 -98 38 -16 -6 -33 -19 -38 -28 -4 -10 -10 -774
-13 -1699 -5 -1679 -5 -1682 -26 -1709 -11 -15 -33 -37 -48 -48 -27 -21 -35
-21 -1017 -24 l-989 -2 0 79 c0 77 1 79 29 90 15 7 33 24 40 37 15 33 15 354
0 387 -18 39 -50 47 -184 47 l-125 0 0 40 c0 54 20 100 58 131 35 30 -2 21
832 219 348 83 645 157 661 165 47 25 97 84 114 135 14 41 16 95 13 352 l-3
303 -31 55 c-22 38 -46 64 -79 85 -45 28 -56 30 -167 34 l-118 3 0 69 c0 140
-80 261 -203 307 -57 22 -68 22 -663 22 l-605 0 -24 -25 c-30 -29 -32 -74 -6
-106 l19 -24 610 -5 c597 -5 611 -5 638 -26 67 -50 69 -56 72 -277 3 -194 2
-204 -20 -247 -17 -33 -35 -51 -68 -67 l-44 -23 -1066 0 -1066 0 -44 23 c-33
16 -51 34 -68 67 -22 43 -23 53 -20 247 3 185 5 204 24 229 46 62 65 69 206
74 121 5 131 7 149 29 26 32 24 77 -6 106 -23 24 -30 25 -149 25 -158 0 -216
-19 -292 -94 -84 -85 -94 -124 -94 -375 0 -230 7 -274 60 -353 17 -25 46 -56
65 -69 l35 -24 0 -271 c0 -318 6 -350 75 -419 85 -86 212 -94 307 -22 64 49
90 109 97 225 7 112 24 149 81 181 76 42 177 15 218 -58 10 -20 22 -58 26 -85
3 -27 15 -63 25 -80 60 -96 207 -92 266 6 18 30 20 54 23 255 l3 222 597 3
597 3 56 26 c115 54 179 154 187 291 l5 78 94 0 c86 0 96 -2 118 -25 l25 -24
0 -290 0 -289 -29 -25 c-16 -13 -46 -28 -67 -32 -138 -25 -1377 -330 -1411
-346 -52 -25 -119 -97 -145 -157 -11 -25 -23 -74 -26 -109 l-5 -63 -123 0
c-133 0 -165 -8 -183 -47 -15 -33 -15 -354 0 -387 7 -13 25 -30 40 -37 28 -11
29 -13 29 -90 l0 -79 -989 2 c-982 3 -990 3 -1017 24 -15 11 -37 33 -48 48
l-21 27 -3 1790 -2 1789 2444 0 c1796 0 2452 3 2470 11 43 20 48 49 44 305 -3
234 -4 240 -29 295 -33 71 -87 125 -158 158 l-56 26 -2300 2 c-2193 2 -2302 2
-2352 -16z m4647 -163 c33 -17 51 -35 68 -68 20 -41 22 -58 22 -217 l0 -173
-972 2 -972 3 -83 220 c-46 121 -85 228 -89 238 -5 16 46 17 988 17 l994 0 44
-22z m-2335 -163 c73 -73 -37 -184 -112 -113 -30 28 -31 83 -1 115 30 32 81
31 113 -2z m265 -3735 l0 -80 -240 0 -240 0 0 80 0 80 240 0 240 0 0 -80z"/>
<path d="M1945 3175 c-16 -15 -25 -36 -25 -55 0 -19 9 -40 25 -55 23 -24 31
-25 135 -25 104 0 112 1 135 25 16 15 25 36 25 55 0 19 -9 40 -25 55 -23 24
-31 25 -135 25 -104 0 -112 -1 -135 -25z"/>
<path d="M1545 1185 c-105 -37 -134 -175 -54 -254 110 -111 300 -2 259 148
-13 50 -60 97 -108 111 -46 12 -48 12 -97 -5z"/>
</g>
</svg>
