<?xml version="1.0" standalone="no"?>
<!DOCTYPE svg PUBLIC "-//W3C//DTD SVG 20010904//EN"
 "http://www.w3.org/TR/2001/REC-SVG-20010904/DTD/svg10.dtd">
<svg version="1.0" xmlns="http://www.w3.org/2000/svg"
 width="512.000000pt" height="512.000000pt" viewBox="0 0 512.000000 512.000000"
 preserveAspectRatio="xMidYMid meet">

<g transform="translate(0.000000,512.000000) scale(0.100000,-0.100000)"
fill="#000000" stroke="none">
<path d="M2256 5044 c-54 -7 -112 -16 -128 -20 l-30 -6 42 -22 c62 -31 154
-134 181 -203 19 -47 23 -77 23 -158 0 -140 -23 -195 -119 -292 l-73 -73 1112
0 1111 1 -117 114 c-125 122 -260 228 -408 320 -142 88 -131 86 -190 31 -77
-72 -101 -79 -252 -71 l-128 8 -73 -75 c-91 -94 -115 -103 -251 -94 -114 8
-144 1 -191 -44 l-30 -29 -45 38 -45 39 45 44 c60 57 104 69 243 67 131 -3
141 1 214 81 75 83 109 94 254 85 96 -5 122 -4 147 9 24 12 42 34 42 50 0 2
-46 22 -102 44 -200 79 -427 137 -624 160 l-72 8 -11 -38 c-12 -37 -50 -68
-85 -68 -29 0 -76 50 -76 81 l0 29 -132 -1 c-73 -1 -177 -7 -232 -15z"/>
<path d="M1813 4906 c-232 -108 -229 -436 5 -544 71 -32 182 -29 255 8 142 72
203 251 133 394 -33 66 -100 129 -163 150 -71 24 -168 21 -230 -8z"/>
<path d="M1455 4791 c-220 -116 -391 -240 -565 -408 l-115 -112 479 -1 479 0
-46 35 c-108 83 -160 190 -161 330 0 75 4 101 26 153 14 34 23 62 19 62 -3 0
-55 -27 -116 -59z"/>
<path d="M648 4011 c-28 -25 -33 -36 -33 -76 0 -40 5 -51 33 -76 60 -53 151
-30 170 44 29 107 -88 181 -170 108z"/>
<path d="M363 3643 c-129 -281 -202 -590 -219 -923 l-7 -134 43 37 c24 20 45
36 46 34 3 -2 44 -238 44 -250 0 -4 -25 3 -56 14 -30 12 -58 19 -61 16 -8 -8
16 -178 43 -308 31 -150 82 -310 147 -462 l52 -122 5 1090 c3 600 5 1091 4
1093 -1 1 -19 -37 -41 -85z"/>
<path d="M4761 2634 l1 -1069 33 70 c108 230 184 527 208 815 5 54 4 55 -27
70 -61 29 -60 112 2 140 l33 15 -6 100 c-18 285 -81 552 -192 815 -25 58 -47
107 -49 109 -2 2 -4 -477 -3 -1065z"/>
<path d="M2230 2860 c-20 -20 -20 -31 -18 -502 l3 -481 28 -21 c23 -17 32 -19
57 -9 58 22 801 456 815 476 18 26 19 56 1 79 -23 32 -806 478 -837 478 -16 0
-38 -9 -49 -20z"/>
<path d="M755 1544 c-117 -43 -177 -187 -126 -300 26 -58 92 -111 155 -124 36
-8 564 -10 1832 -8 l1781 3 49 30 c71 44 108 109 108 188 -1 92 -39 158 -119
200 l-40 22 -1800 2 c-1558 1 -1805 0 -1840 -13z m877 -214 l-4 -30 -428 0
c-368 0 -429 2 -440 15 -10 12 -10 18 0 30 11 13 73 15 444 15 l433 0 -5 -30z
m2783 0 l0 -25 -1287 -3 -1288 -2 0 30 0 30 1288 -2 1287 -3 0 -25z"/>
<path d="M906 861 c83 -79 204 -176 306 -245 l85 -57 313 81 c173 45 319 84
326 87 12 4 51 -104 41 -114 -3 -2 -119 -34 -258 -69 -140 -36 -256 -68 -258
-70 -8 -7 204 -103 309 -139 58 -20 148 -47 200 -61 91 -23 96 -23 110 -6 8
10 109 131 223 270 114 138 211 253 215 256 5 3 28 -12 52 -33 l44 -38 -202
-244 c-111 -134 -202 -247 -202 -250 0 -29 557 -33 725 -5 110 18 255 49 288
61 13 6 21 -1 33 -31 9 -22 18 -41 19 -43 4 -3 255 79 255 84 0 1 -7 21 -15
44 l-14 41 42 17 c197 77 503 277 682 446 l80 76 -1730 0 -1730 0 61 -58z"/>
</g>
</svg>
